<?xml version="1.0" standalone="no"?>
<!DOCTYPE svg PUBLIC "-//W3C//DTD SVG 20010904//EN"
 "http://www.w3.org/TR/2001/REC-SVG-20010904/DTD/svg10.dtd">
<svg version="1.0" xmlns="http://www.w3.org/2000/svg"
 width="872.000000pt" height="872.000000pt" viewBox="0 0 872.000000 872.000000"
 preserveAspectRatio="xMidYMid meet">
<metadata>
Created by potrace 1.14, written by Peter Selinger 2001-2017
</metadata>
<g transform="translate(0.000000,872.000000) scale(0.100000,-0.100000)"
fill="#000000" stroke="none">
<path d="M1360 7026 c-166 -30 -289 -73 -413 -147 -98 -58 -239 -202 -294
-299 -48 -86 -97 -225 -112 -320 -7 -39 -11 -272 -11 -590 0 -640 -11 -752
-82 -863 -45 -70 -95 -103 -186 -123 -132 -28 -201 -83 -242 -191 -18 -48 -21
-73 -18 -149 7 -176 88 -278 244 -308 121 -23 171 -59 224 -164 49 -98 52
-145 59 -807 l7 -620 27 -86 c51 -168 104 -262 208 -373 184 -197 450 -301
774 -301 134 0 156 3 208 23 85 35 137 79 172 147 27 53 30 68 30 155 0 91 -2
101 -35 166 -52 102 -90 125 -222 135 -185 15 -296 75 -344 188 -44 104 -47
139 -53 786 l-7 620 -27 80 c-47 142 -122 232 -242 291 -78 38 -208 74 -267
74 -21 0 -38 5 -38 10 0 6 17 10 38 10 60 0 189 36 267 74 121 60 194 148 242
291 l27 80 7 620 c5 518 9 631 22 688 45 188 149 268 374 286 133 10 171 33
223 135 33 65 35 75 35 166 0 87 -3 102 -30 155 -35 68 -87 113 -172 146 -48
19 -81 23 -188 25 -76 2 -161 -3 -205 -10z"/>
<path d="M7010 7024 c-122 -33 -206 -109 -237 -214 -37 -127 12 -299 104 -364
37 -26 54 -30 146 -37 225 -18 329 -98 374 -286 13 -57 17 -169 22 -688 l6
-620 28 -80 c67 -191 180 -291 391 -345 44 -11 96 -20 118 -20 21 0 38 -4 38
-10 0 -5 -17 -10 -38 -10 -22 0 -74 -9 -118 -20 -211 -54 -324 -154 -391 -345
l-28 -80 -6 -620 c-6 -647 -9 -682 -53 -786 -48 -113 -159 -173 -344 -188 -91
-7 -108 -11 -145 -37 -88 -62 -138 -226 -107 -352 54 -226 332 -300 729 -196
181 47 334 135 450 260 104 111 157 205 208 373 l27 86 7 620 c7 671 10 708
63 814 49 97 107 136 238 161 89 17 146 61 187 144 30 59 36 81 39 156 9 194
-74 310 -246 341 -147 28 -221 108 -259 283 -13 58 -17 187 -22 691 l-7 620
-26 85 c-86 276 -237 456 -480 570 -200 94 -507 137 -668 94z"/>
<path d="M3496 6124 c-165 -40 -265 -141 -314 -317 -16 -57 -17 -164 -17
-1402 0 -1250 1 -1344 18 -1404 49 -177 148 -276 319 -316 92 -22 1719 -22
1832 -1 196 38 289 138 289 313 0 158 -74 248 -248 301 -42 14 -148 16 -687
19 l-638 4 0 379 0 380 485 0 c404 0 499 3 562 16 124 25 176 61 225 154 19
36 24 64 26 145 4 97 3 102 -30 165 -25 49 -45 73 -82 97 -98 66 -159 72 -723
73 l-463 0 0 380 0 380 605 0 c513 0 618 2 682 16 135 28 215 80 259 170 23
47 27 68 27 139 0 71 -4 92 -27 139 -45 91 -121 142 -259 170 -66 14 -189 16
-929 15 -700 -1 -863 -3 -912 -15z"/>
</g>
</svg>
